<?xml version="1.0" standalone="no"?>
<!DOCTYPE svg PUBLIC "-//W3C//DTD SVG 1.1//EN" "http://www.w3.org/Graphics/SVG/1.1/DTD/svg11.dtd">
<svg width="100%" height="100%" viewBox="0 0 512 512" version="1.1" xmlns="http://www.w3.org/2000/svg" xmlns:xlink="http://www.w3.org/1999/xlink" xml:space="preserve" style="fill-rule:evenodd;clip-rule:evenodd;stroke-linejoin:round;stroke-miterlimit:1.41421;">
    <path d="M71,460L30,0L481,0L440,460L255,512" style="fill:rgb(227,79,38);fill-rule:nonzero;"/>
    <path d="M256,472L405,431L440,37L256,37" style="fill:rgb(239,101,42);fill-rule:nonzero;"/>
    <path d="M256,472L107,431L72,37L256,37" style="fill:rgb(239,101,42);fill-rule:nonzero;"/>
    <path d="M398.046,66.9298L364.77,408.743L257.244,440.011L212.45,427.939L207.958,349.615L257.039,345.862L258.773,381.374L317.303,365.569L342.311,67.0244L398.046,66.9298Z" style="fill:white;"/>
    <path d="M324.831,67.7589L320.85,120.625L175.185,119.429L178.463,188.56L291.505,188.83L288.236,240.556L184.722,240.073L197.76,422.53L145.978,408.456L115.432,67.4186L324.831,67.7589Z" style="fill:white;"/>
</svg>
